<mxfile host="65bd71144e">
    <diagram id="Ec31vJ_9S3xs3-GyzPjp" name="sitemap">
        <mxGraphModel dx="1347" dy="995" grid="1" gridSize="10" guides="1" tooltips="1" connect="1" arrows="1" fold="1" page="1" pageScale="1" pageWidth="850" pageHeight="1100" math="0" shadow="0">
            <root>
                <mxCell id="0"/>
                <mxCell id="1" parent="0"/>
                <mxCell id="44" style="edgeStyle=none;html=1;entryX=0.5;entryY=0;entryDx=0;entryDy=0;fontSize=14;endArrow=none;endFill=0;" parent="1" source="2" target="3" edge="1">
                    <mxGeometry relative="1" as="geometry"/>
                </mxCell>
                <mxCell id="45" style="edgeStyle=none;html=1;entryX=0.5;entryY=0;entryDx=0;entryDy=0;fontSize=14;endArrow=none;endFill=0;" parent="1" source="2" target="5" edge="1">
                    <mxGeometry relative="1" as="geometry">
                        <Array as="points">
                            <mxPoint x="100" y="150"/>
                            <mxPoint x="380" y="150"/>
                        </Array>
                    </mxGeometry>
                </mxCell>
                <mxCell id="51" style="edgeStyle=none;html=1;fontSize=14;endArrow=none;endFill=0;entryX=0.5;entryY=0;entryDx=0;entryDy=0;" parent="1" target="6" edge="1">
                    <mxGeometry relative="1" as="geometry">
                        <mxPoint x="100" y="100" as="sourcePoint"/>
                        <Array as="points">
                            <mxPoint x="100" y="150"/>
                            <mxPoint x="660" y="150"/>
                        </Array>
                    </mxGeometry>
                </mxCell>
                <mxCell id="52" style="edgeStyle=none;html=1;fontSize=14;endArrow=none;endFill=0;entryX=0.5;entryY=0;entryDx=0;entryDy=0;exitX=0.5;exitY=1;exitDx=0;exitDy=0;" parent="1" source="2" target="7" edge="1">
                    <mxGeometry relative="1" as="geometry">
                        <mxPoint x="700" y="150" as="targetPoint"/>
                        <Array as="points">
                            <mxPoint x="100" y="150"/>
                            <mxPoint x="940" y="150"/>
                        </Array>
                    </mxGeometry>
                </mxCell>
                <mxCell id="53" style="edgeStyle=none;html=1;fontSize=14;endArrow=none;endFill=0;entryX=0.5;entryY=0;entryDx=0;entryDy=0;exitX=0.5;exitY=1;exitDx=0;exitDy=0;" parent="1" source="2" target="8" edge="1">
                    <mxGeometry relative="1" as="geometry">
                        <mxPoint x="540" y="140" as="targetPoint"/>
                        <Array as="points">
                            <mxPoint x="100" y="150"/>
                            <mxPoint x="1220" y="150"/>
                        </Array>
                    </mxGeometry>
                </mxCell>
                <mxCell id="2" value="&lt;b style=&quot;font-size: 14px;&quot;&gt;ページルート&lt;/b&gt;" style="rounded=0;whiteSpace=wrap;html=1;fillColor=#bf7fff;fontSize=14;" parent="1" vertex="1">
                    <mxGeometry x="40" y="40" width="120" height="60" as="geometry"/>
                </mxCell>
                <mxCell id="46" style="edgeStyle=none;html=1;entryX=0;entryY=0.5;entryDx=0;entryDy=0;fontSize=14;endArrow=none;endFill=0;" parent="1" source="3" target="4" edge="1">
                    <mxGeometry relative="1" as="geometry">
                        <Array as="points">
                            <mxPoint x="100" y="350"/>
                        </Array>
                    </mxGeometry>
                </mxCell>
                <mxCell id="47" style="edgeStyle=none;html=1;entryX=0;entryY=0.5;entryDx=0;entryDy=0;fontSize=14;endArrow=none;endFill=0;" parent="1" source="3" target="22" edge="1">
                    <mxGeometry relative="1" as="geometry">
                        <Array as="points">
                            <mxPoint x="100" y="470"/>
                        </Array>
                    </mxGeometry>
                </mxCell>
                <mxCell id="54" style="edgeStyle=none;html=1;entryX=0;entryY=0.5;entryDx=0;entryDy=0;fontSize=14;endArrow=none;endFill=0;" parent="1" source="3" target="21" edge="1">
                    <mxGeometry relative="1" as="geometry">
                        <Array as="points">
                            <mxPoint x="100" y="590"/>
                        </Array>
                    </mxGeometry>
                </mxCell>
                <mxCell id="55" style="edgeStyle=none;html=1;entryX=0;entryY=0.5;entryDx=0;entryDy=0;fontSize=14;endArrow=none;endFill=0;" parent="1" source="3" target="23" edge="1">
                    <mxGeometry relative="1" as="geometry">
                        <Array as="points">
                            <mxPoint x="100" y="710"/>
                        </Array>
                    </mxGeometry>
                </mxCell>
                <mxCell id="56" style="edgeStyle=none;html=1;entryX=0;entryY=0.5;entryDx=0;entryDy=0;fontSize=14;endArrow=none;endFill=0;" parent="1" source="3" target="25" edge="1">
                    <mxGeometry relative="1" as="geometry">
                        <Array as="points">
                            <mxPoint x="100" y="830"/>
                        </Array>
                    </mxGeometry>
                </mxCell>
                <mxCell id="58" style="edgeStyle=none;html=1;entryX=0;entryY=0.5;entryDx=0;entryDy=0;fontSize=14;endArrow=none;endFill=0;" parent="1" source="3" target="17" edge="1">
                    <mxGeometry relative="1" as="geometry">
                        <Array as="points">
                            <mxPoint x="100" y="950"/>
                        </Array>
                    </mxGeometry>
                </mxCell>
                <mxCell id="59" style="edgeStyle=none;html=1;entryX=0;entryY=0.5;entryDx=0;entryDy=0;fontSize=14;endArrow=none;endFill=0;" parent="1" source="3" target="20" edge="1">
                    <mxGeometry relative="1" as="geometry">
                        <Array as="points">
                            <mxPoint x="100" y="1070"/>
                        </Array>
                    </mxGeometry>
                </mxCell>
                <mxCell id="73" style="edgeStyle=none;html=1;fontSize=14;endArrow=none;endFill=0;entryX=0;entryY=0.5;entryDx=0;entryDy=0;" parent="1" source="3" target="72" edge="1">
                    <mxGeometry relative="1" as="geometry">
                        <mxPoint x="60" y="660" as="targetPoint"/>
                        <Array as="points">
                            <mxPoint x="100" y="1190"/>
                        </Array>
                    </mxGeometry>
                </mxCell>
                <mxCell id="3" value="&lt;b style=&quot;font-size: 14px;&quot;&gt;ホーム&lt;/b&gt;" style="rounded=0;whiteSpace=wrap;html=1;fillColor=#7fff7f;fontSize=14;" parent="1" vertex="1">
                    <mxGeometry x="40" y="200" width="120" height="60" as="geometry"/>
                </mxCell>
                <mxCell id="4" value="&lt;b&gt;製品トップ画像&lt;/b&gt;" style="rounded=0;whiteSpace=wrap;html=1;fillColor=#ffff7f;fontSize=14;" parent="1" vertex="1">
                    <mxGeometry x="120" y="320" width="120" height="60" as="geometry"/>
                </mxCell>
                <mxCell id="48" style="edgeStyle=none;html=1;entryX=0;entryY=0.5;entryDx=0;entryDy=0;fontSize=14;endArrow=none;endFill=0;" parent="1" source="5" target="29" edge="1">
                    <mxGeometry relative="1" as="geometry">
                        <Array as="points">
                            <mxPoint x="380" y="350"/>
                        </Array>
                    </mxGeometry>
                </mxCell>
                <mxCell id="60" style="edgeStyle=none;html=1;entryX=0;entryY=0.5;entryDx=0;entryDy=0;fontSize=14;endArrow=none;endFill=0;" parent="1" source="5" target="32" edge="1">
                    <mxGeometry relative="1" as="geometry">
                        <Array as="points">
                            <mxPoint x="380" y="470"/>
                        </Array>
                    </mxGeometry>
                </mxCell>
                <mxCell id="61" style="edgeStyle=none;html=1;entryX=0;entryY=0.5;entryDx=0;entryDy=0;fontSize=14;endArrow=none;endFill=0;" parent="1" source="5" target="33" edge="1">
                    <mxGeometry relative="1" as="geometry">
                        <Array as="points">
                            <mxPoint x="380" y="590"/>
                        </Array>
                    </mxGeometry>
                </mxCell>
                <mxCell id="62" style="edgeStyle=none;html=1;entryX=0;entryY=0.5;entryDx=0;entryDy=0;fontSize=14;endArrow=none;endFill=0;" parent="1" source="5" target="26" edge="1">
                    <mxGeometry relative="1" as="geometry">
                        <Array as="points">
                            <mxPoint x="380" y="710"/>
                        </Array>
                    </mxGeometry>
                </mxCell>
                <mxCell id="63" style="edgeStyle=none;html=1;entryX=0;entryY=0.5;entryDx=0;entryDy=0;fontSize=14;endArrow=none;endFill=0;" parent="1" source="5" target="27" edge="1">
                    <mxGeometry relative="1" as="geometry">
                        <Array as="points">
                            <mxPoint x="380" y="830"/>
                        </Array>
                    </mxGeometry>
                </mxCell>
                <mxCell id="5" value="&lt;b&gt;店舗紹介&lt;/b&gt;" style="rounded=0;whiteSpace=wrap;html=1;fillColor=#7fff7f;fontSize=14;" parent="1" vertex="1">
                    <mxGeometry x="320" y="200" width="120" height="60" as="geometry"/>
                </mxCell>
                <mxCell id="64" style="edgeStyle=none;html=1;entryX=0;entryY=0.5;entryDx=0;entryDy=0;fontSize=14;endArrow=none;endFill=0;" parent="1" source="6" target="36" edge="1">
                    <mxGeometry relative="1" as="geometry">
                        <Array as="points">
                            <mxPoint x="660" y="470"/>
                        </Array>
                    </mxGeometry>
                </mxCell>
                <mxCell id="65" style="edgeStyle=none;html=1;entryX=0;entryY=0.5;entryDx=0;entryDy=0;fontSize=14;endArrow=none;endFill=0;" parent="1" source="6" target="34" edge="1">
                    <mxGeometry relative="1" as="geometry">
                        <Array as="points">
                            <mxPoint x="660" y="350"/>
                        </Array>
                    </mxGeometry>
                </mxCell>
                <mxCell id="6" value="&lt;b&gt;ニュース&lt;/b&gt;" style="rounded=0;whiteSpace=wrap;html=1;fillColor=#7fff7f;fontSize=14;" parent="1" vertex="1">
                    <mxGeometry x="600" y="200" width="120" height="60" as="geometry"/>
                </mxCell>
                <mxCell id="66" style="edgeStyle=none;html=1;fontSize=14;endArrow=none;endFill=0;entryX=0;entryY=0.5;entryDx=0;entryDy=0;" parent="1" source="7" target="37" edge="1">
                    <mxGeometry relative="1" as="geometry">
                        <mxPoint x="930" y="360" as="targetPoint"/>
                        <Array as="points">
                            <mxPoint x="940" y="350"/>
                        </Array>
                    </mxGeometry>
                </mxCell>
                <mxCell id="7" value="&lt;b&gt;コンタクト&lt;/b&gt;" style="rounded=0;whiteSpace=wrap;html=1;fillColor=#7fff7f;fontSize=14;" parent="1" vertex="1">
                    <mxGeometry x="880" y="200" width="120" height="60" as="geometry"/>
                </mxCell>
                <mxCell id="67" style="edgeStyle=none;html=1;entryX=0;entryY=0.5;entryDx=0;entryDy=0;fontSize=14;endArrow=none;endFill=0;" parent="1" source="8" target="42" edge="1">
                    <mxGeometry relative="1" as="geometry">
                        <Array as="points">
                            <mxPoint x="1220" y="350"/>
                        </Array>
                    </mxGeometry>
                </mxCell>
                <mxCell id="68" style="edgeStyle=none;html=1;entryX=0;entryY=0.5;entryDx=0;entryDy=0;fontSize=14;endArrow=none;endFill=0;" parent="1" source="8" target="39" edge="1">
                    <mxGeometry relative="1" as="geometry">
                        <Array as="points">
                            <mxPoint x="1220" y="460"/>
                        </Array>
                    </mxGeometry>
                </mxCell>
                <mxCell id="69" style="edgeStyle=none;html=1;entryX=0;entryY=0.5;entryDx=0;entryDy=0;fontSize=14;endArrow=none;endFill=0;" parent="1" source="8" target="40" edge="1">
                    <mxGeometry relative="1" as="geometry">
                        <Array as="points">
                            <mxPoint x="1220" y="590"/>
                        </Array>
                    </mxGeometry>
                </mxCell>
                <mxCell id="70" style="edgeStyle=none;html=1;entryX=0;entryY=0.5;entryDx=0;entryDy=0;fontSize=14;endArrow=none;endFill=0;" parent="1" source="8" target="41" edge="1">
                    <mxGeometry relative="1" as="geometry">
                        <Array as="points">
                            <mxPoint x="1220" y="710"/>
                        </Array>
                    </mxGeometry>
                </mxCell>
                <mxCell id="8" value="&lt;b&gt;プロダクト&lt;/b&gt;" style="rounded=0;whiteSpace=wrap;html=1;fillColor=#7fff7f;fontSize=14;" parent="1" vertex="1">
                    <mxGeometry x="1160" y="200" width="120" height="60" as="geometry"/>
                </mxCell>
                <mxCell id="17" value="&lt;b&gt;基本情報&lt;/b&gt;" style="rounded=0;whiteSpace=wrap;html=1;fillColor=#ffff7f;fontSize=14;" parent="1" vertex="1">
                    <mxGeometry x="120" y="920" width="120" height="60" as="geometry"/>
                </mxCell>
                <mxCell id="20" value="&lt;b&gt;マップ&lt;/b&gt;" style="rounded=0;whiteSpace=wrap;html=1;fillColor=#ffff7f;fontSize=14;" parent="1" vertex="1">
                    <mxGeometry x="120" y="1040" width="120" height="60" as="geometry"/>
                </mxCell>
                <mxCell id="21" value="&lt;b&gt;イージオーダー&lt;br&gt;&lt;/b&gt;" style="rounded=0;whiteSpace=wrap;html=1;fillColor=#ffff7f;fontSize=14;" parent="1" vertex="1">
                    <mxGeometry x="120" y="560" width="120" height="60" as="geometry"/>
                </mxCell>
                <mxCell id="22" value="&lt;b&gt;最新作品一覧&lt;br&gt;&lt;/b&gt;" style="rounded=0;whiteSpace=wrap;html=1;fillColor=#ffff7f;fontSize=14;" parent="1" vertex="1">
                    <mxGeometry x="120" y="440" width="120" height="60" as="geometry"/>
                </mxCell>
                <mxCell id="23" value="&lt;b&gt;フルオーダー&lt;br&gt;&lt;/b&gt;" style="rounded=0;whiteSpace=wrap;html=1;fillColor=#ffff7f;fontSize=14;" parent="1" vertex="1">
                    <mxGeometry x="120" y="680" width="120" height="60" as="geometry"/>
                </mxCell>
                <mxCell id="25" value="&lt;b&gt;リペア&lt;br&gt;&lt;/b&gt;" style="rounded=0;whiteSpace=wrap;html=1;fillColor=#ffff7f;fontSize=14;" parent="1" vertex="1">
                    <mxGeometry x="120" y="800" width="120" height="60" as="geometry"/>
                </mxCell>
                <mxCell id="26" value="&lt;b&gt;会社概要&lt;br&gt;&lt;/b&gt;" style="rounded=0;whiteSpace=wrap;html=1;fillColor=#ffff7f;fontSize=14;" parent="1" vertex="1">
                    <mxGeometry x="400" y="680" width="120" height="60" as="geometry"/>
                </mxCell>
                <mxCell id="27" value="&lt;b&gt;沿革&lt;br&gt;&lt;/b&gt;" style="rounded=0;whiteSpace=wrap;html=1;fillColor=#ffff7f;fontSize=14;" parent="1" vertex="1">
                    <mxGeometry x="400" y="800" width="120" height="60" as="geometry"/>
                </mxCell>
                <mxCell id="29" value="&lt;b&gt;店舗トップ画像&lt;/b&gt;" style="rounded=0;whiteSpace=wrap;html=1;fillColor=#ffff7f;fontSize=14;" parent="1" vertex="1">
                    <mxGeometry x="400" y="320" width="120" height="60" as="geometry"/>
                </mxCell>
                <mxCell id="32" value="&lt;b&gt;制作意思&lt;/b&gt;" style="rounded=0;whiteSpace=wrap;html=1;fillColor=#ffff7f;fontSize=14;" parent="1" vertex="1">
                    <mxGeometry x="400" y="440" width="120" height="60" as="geometry"/>
                </mxCell>
                <mxCell id="33" value="&lt;b&gt;制作工程&lt;/b&gt;" style="rounded=0;whiteSpace=wrap;html=1;fillColor=#ffff7f;fontSize=14;" parent="1" vertex="1">
                    <mxGeometry x="400" y="560" width="120" height="60" as="geometry"/>
                </mxCell>
                <mxCell id="34" value="&lt;b&gt;ニュース&lt;br&gt;トップ画像&lt;/b&gt;" style="rounded=0;whiteSpace=wrap;html=1;fillColor=#ffff7f;fontSize=14;" parent="1" vertex="1">
                    <mxGeometry x="680" y="320" width="120" height="60" as="geometry"/>
                </mxCell>
                <mxCell id="36" value="&lt;b&gt;ブログ&lt;/b&gt;" style="rounded=0;whiteSpace=wrap;html=1;fillColor=#ffff7f;fontSize=14;" parent="1" vertex="1">
                    <mxGeometry x="680" y="440" width="120" height="60" as="geometry"/>
                </mxCell>
                <mxCell id="37" value="&lt;b&gt;LINEへの誘導&lt;/b&gt;" style="rounded=0;whiteSpace=wrap;html=1;fillColor=#ffff7f;fontSize=14;" parent="1" vertex="1">
                    <mxGeometry x="960" y="320" width="120" height="60" as="geometry"/>
                </mxCell>
                <mxCell id="39" value="&lt;b&gt;イージオーダー&lt;br&gt;&lt;/b&gt;" style="rounded=0;whiteSpace=wrap;html=1;fillColor=#ffff7f;fontSize=14;" parent="1" vertex="1">
                    <mxGeometry x="1240" y="440" width="120" height="60" as="geometry"/>
                </mxCell>
                <mxCell id="40" value="&lt;b&gt;フルオーダー&lt;br&gt;&lt;/b&gt;" style="rounded=0;whiteSpace=wrap;html=1;fillColor=#ffff7f;fontSize=14;" parent="1" vertex="1">
                    <mxGeometry x="1240" y="560" width="120" height="60" as="geometry"/>
                </mxCell>
                <mxCell id="41" value="&lt;b&gt;リペア&lt;br&gt;&lt;/b&gt;" style="rounded=0;whiteSpace=wrap;html=1;fillColor=#ffff7f;fontSize=14;" parent="1" vertex="1">
                    <mxGeometry x="1240" y="680" width="120" height="60" as="geometry"/>
                </mxCell>
                <mxCell id="42" value="&lt;b&gt;他事例&lt;br&gt;&lt;/b&gt;" style="rounded=0;whiteSpace=wrap;html=1;fillColor=#ffff7f;fontSize=14;" parent="1" vertex="1">
                    <mxGeometry x="1240" y="320" width="120" height="60" as="geometry"/>
                </mxCell>
                <mxCell id="71" value="&lt;b&gt;&amp;nbsp;Instagram&lt;br&gt;ギャラリー&lt;br&gt;&lt;/b&gt;" style="rounded=0;whiteSpace=wrap;html=1;fillColor=#ffff7f;fontSize=14;" parent="1" vertex="1">
                    <mxGeometry x="400" y="910" width="120" height="60" as="geometry"/>
                </mxCell>
                <mxCell id="72" value="&lt;b&gt;&amp;nbsp;Instagram&lt;br&gt;ギャラリー&lt;br&gt;&lt;/b&gt;" style="rounded=0;whiteSpace=wrap;html=1;fillColor=#ffff7f;fontSize=14;" parent="1" vertex="1">
                    <mxGeometry x="120" y="1160" width="120" height="60" as="geometry"/>
                </mxCell>
            </root>
        </mxGraphModel>
    </diagram>
</mxfile>